<svg width="32" height="32" viewBox="0 0 32 32" fill="none" xmlns="http://www.w3.org/2000/svg">
<path d="M14.1334 22.1327L23.5334 12.7327L21.6667 10.866L14.1334 18.3993L10.3334 14.5993L8.46669 16.466L14.1334 22.1327ZM16 29.3327C14.1556 29.3327 12.4222 28.9825 10.8 28.282C9.1778 27.5825 7.76669 26.6327 6.56669 25.4327C5.36669 24.2327 4.41691 22.8216 3.71735 21.1993C3.01691 19.5771 2.66669 17.8438 2.66669 15.9993C2.66669 14.1549 3.01691 12.4216 3.71735 10.7993C4.41691 9.17713 5.36669 7.76602 6.56669 6.56602C7.76669 5.36602 9.1778 4.41579 10.8 3.71535C12.4222 3.01579 14.1556 2.66602 16 2.66602C17.8445 2.66602 19.5778 3.01579 21.2 3.71535C22.8222 4.41579 24.2334 5.36602 25.4334 6.56602C26.6334 7.76602 27.5831 9.17713 28.2827 10.7993C28.9831 12.4216 29.3334 14.1549 29.3334 15.9993C29.3334 17.8438 28.9831 19.5771 28.2827 21.1993C27.5831 22.8216 26.6334 24.2327 25.4334 25.4327C24.2334 26.6327 22.8222 27.5825 21.2 28.282C19.5778 28.9825 17.8445 29.3327 16 29.3327Z" fill="#F96674"/>
</svg>
