<svg width="32" height="32" viewBox="0 0 32 32" fill="none" xmlns="http://www.w3.org/2000/svg">
<path d="M16 13.75C15.4033 13.75 14.831 13.9871 14.409 14.409C13.9871 14.831 13.75 15.4033 13.75 16C13.75 16.5967 13.9871 17.169 14.409 17.591C14.831 18.0129 15.4033 18.25 16 18.25C16.5967 18.25 17.169 18.0129 17.591 17.591C18.0129 17.169 18.25 16.5967 18.25 16C18.25 15.4033 18.0129 14.831 17.591 14.409C17.169 13.9871 16.5967 13.75 16 13.75Z" fill="#F96674"/>
<path d="M16 8.75C14.0772 8.75 12.2331 9.51384 10.8735 10.8735C9.51384 12.2331 8.75 14.0772 8.75 16C8.75 17.9228 9.51384 19.7669 10.8735 21.1265C12.2331 22.4862 14.0772 23.25 16 23.25C17.9228 23.25 19.7669 22.4862 21.1265 21.1265C22.4862 19.7669 23.25 17.9228 23.25 16C23.25 14.0772 22.4862 12.2331 21.1265 10.8735C19.7669 9.51384 17.9228 8.75 16 8.75ZM11.25 16C11.25 14.7402 11.7504 13.532 12.6412 12.6412C13.532 11.7504 14.7402 11.25 16 11.25C17.2598 11.25 18.468 11.7504 19.3588 12.6412C20.2496 13.532 20.75 14.7402 20.75 16C20.75 17.2598 20.2496 18.468 19.3588 19.3588C18.468 20.2496 17.2598 20.75 16 20.75C14.7402 20.75 13.532 20.2496 12.6412 19.3588C11.7504 18.468 11.25 17.2598 11.25 16Z" fill="#F96674"/>
<path d="M16.001 3.75C9.235 3.75 3.75 9.235 3.75 16.001C3.75 22.767 9.235 28.253 16.001 28.253C22.767 28.253 28.253 22.767 28.253 16.001C28.253 9.235 22.768 3.75 16.001 3.75ZM6.25 16.001C6.25 10.616 10.616 6.25 16.001 6.25C21.387 6.25 25.753 10.616 25.753 16.001C25.753 21.387 21.387 25.753 16.001 25.753C10.616 25.753 6.25 21.387 6.25 16.001Z" fill="#F96674"/>
</svg>
